<svg width="56" height="56" viewBox="0 0 56 56" fill="none" xmlns="http://www.w3.org/2000/svg">
<g filter="url(#filter0_d_2154_787)">
<path fill-rule="evenodd" clip-rule="evenodd" d="M28 5.71429C40.3081 5.71429 50.2857 15.6919 50.2857 28C50.2857 40.3081 40.3081 50.2857 28 50.2857C15.6919 50.2857 5.71429 40.3081 5.71429 28C5.71429 15.6919 15.6919 5.71429 28 5.71429ZM52 28C52 14.7452 41.2548 4 28 4C14.7452 4 4 14.7452 4 28C4 41.2548 14.7452 52 28 52C41.2548 52 52 41.2548 52 28ZM30.5728 14.2859C30.5728 13.8125 30.9565 13.4287 31.4299 13.4287C31.9033 13.4287 32.2871 13.8125 32.2871 14.2859C32.2871 14.7593 31.9033 15.143 31.4299 15.143C30.9565 15.143 30.5728 14.7593 30.5728 14.2859ZM31.4299 11.7145C30.0097 11.7145 28.8585 12.8657 28.8585 14.2859C28.8585 15.706 30.0097 16.8573 31.4299 16.8573C32.8501 16.8573 34.0013 15.706 34.0013 14.2859C34.0013 12.8657 32.8501 11.7145 31.4299 11.7145ZM31.9376 22.1529L28.0013 18.2166L21.5131 24.7048L27.1442 28.4589V34.8573H28.8585V27.5414L24.2039 24.4384L28.0013 20.6409L30.9222 23.5618L34.4752 25.3382C34.8986 25.55 35.4134 25.3783 35.6251 24.9549C35.8368 24.5315 35.6652 24.0166 35.2418 23.8049L31.9376 22.1529ZM13.4299 33.143C13.4299 30.7761 15.3487 28.8573 17.7156 28.8573C20.0826 28.8573 22.0013 30.7761 22.0013 33.143C22.0013 35.51 20.0826 37.4287 17.7156 37.4287C15.3487 37.4287 13.4299 35.51 13.4299 33.143ZM17.7156 27.143C14.4019 27.143 11.7156 29.8293 11.7156 33.143C11.7156 36.4567 14.4019 39.143 17.7156 39.143C21.0293 39.143 23.7156 36.4567 23.7156 33.143C23.7156 29.8293 21.0293 27.143 17.7156 27.143ZM34.0013 33.143C34.0013 30.7761 35.9201 28.8573 38.2871 28.8573C40.654 28.8573 42.5728 30.7761 42.5728 33.143C42.5728 35.51 40.654 37.4287 38.2871 37.4287C35.9201 37.4287 34.0013 35.51 34.0013 33.143ZM38.2871 27.143C34.9733 27.143 32.2871 29.8293 32.2871 33.143C32.2871 36.4567 34.9733 39.143 38.2871 39.143C41.6008 39.143 44.2871 36.4567 44.2871 33.143C44.2871 29.8293 41.6008 27.143 38.2871 27.143Z" fill="#102224"/>
</g>
<defs>
<filter id="filter0_d_2154_787" x="0" y="0" width="56" height="56" filterUnits="userSpaceOnUse" color-interpolation-filters="sRGB">
<feFlood flood-opacity="0" result="BackgroundImageFix"/>
<feColorMatrix in="SourceAlpha" type="matrix" values="0 0 0 0 0 0 0 0 0 0 0 0 0 0 0 0 0 0 127 0" result="hardAlpha"/>
<feOffset/>
<feGaussianBlur stdDeviation="2"/>
<feComposite in2="hardAlpha" operator="out"/>
<feColorMatrix type="matrix" values="0 0 0 0 0 0 0 0 0 0 0 0 0 0 0 0 0 0 0.1 0"/>
<feBlend mode="normal" in2="BackgroundImageFix" result="effect1_dropShadow_2154_787"/>
<feBlend mode="normal" in="SourceGraphic" in2="effect1_dropShadow_2154_787" result="shape"/>
</filter>
</defs>
</svg>
